<?xml version="1.0" encoding="UTF-8" standalone="no"?>
<svg
   width="200"
   height="96"
   viewBox="0 0 52.916665 25.400001"
   version="1.1"
   id="svg8"
   inkscape:version="1.1 (c68e22c387, 2021-05-23)"
   sodipodi:docname="site_logo.svg"
   inkscape:export-filename="/home/orschiro/Downloads/phil-rob/site_logo.png"
   inkscape:export-xdpi="96"
   inkscape:export-ydpi="96"
   xmlns:inkscape="http://www.inkscape.org/namespaces/inkscape"
   xmlns:sodipodi="http://sodipodi.sourceforge.net/DTD/sodipodi-0.dtd"
   xmlns="http://www.w3.org/2000/svg"
   xmlns:svg="http://www.w3.org/2000/svg"
   xmlns:rdf="http://www.w3.org/1999/02/22-rdf-syntax-ns#"
   xmlns:cc="http://creativecommons.org/ns#"
   xmlns:dc="http://purl.org/dc/elements/1.1/">
  <defs
     id="defs2" />
  <sodipodi:namedview
     id="base"
     pagecolor="#ffffff"
     bordercolor="#666666"
     borderopacity="1.0"
     inkscape:pageopacity="0"
     inkscape:pageshadow="2"
     inkscape:zoom="3.9348678"
     inkscape:cx="20.966397"
     inkscape:cy="39.518481"
     inkscape:document-units="mm"
     inkscape:current-layer="layer1"
     inkscape:document-rotation="0"
     showgrid="false"
     inkscape:window-width="1274"
     inkscape:window-height="954"
     inkscape:window-x="0"
     inkscape:window-y="30"
     inkscape:window-maximized="1"
     units="px"
     inkscape:pagecheckerboard="0"
     width="200px" />
  <metadata
     id="metadata5">
    <rdf:RDF>
      <cc:Work
         rdf:about="">
        <dc:format>image/svg+xml</dc:format>
        <dc:type
           rdf:resource="http://purl.org/dc/dcmitype/StillImage" />
      </cc:Work>
    </rdf:RDF>
  </metadata>
  <g
     inkscape:label="Layer 1"
     inkscape:groupmode="layer"
     id="layer1">
    <circle
       style="fill:#6a6a6a;fill-opacity:1;stroke:none;stroke-width:0.661001"
       id="path1087"
       cx="7.0231128"
       cy="6.4498777"
       r="5.8303661" />
    <text
       xml:space="preserve"
       style="font-style:normal;font-variant:normal;font-weight:normal;font-stretch:normal;font-size:10.8262px;line-height:125%;font-family:Z003;-inkscape-font-specification:Z003;letter-spacing:0px;word-spacing:0px;fill:#ffcc00;fill-opacity:1;stroke:#ffffff;stroke-width:0.270653px;stroke-linecap:butt;stroke-linejoin:miter;stroke-opacity:1"
       x="9.5046749"
       y="8.2772894"
       id="text23"
       inkscape:export-xdpi="96"
       inkscape:export-ydpi="96"
       transform="scale(1.0031798,0.99683028)"
       inkscape:export-filename="/home/orschiro/Downloads/phil-rob/site_logo.png"><tspan
         sodipodi:role="line"
         id="tspan21"
         x="9.5046749"
         y="8.2772894"
         style="font-style:normal;font-variant:normal;font-weight:normal;font-stretch:normal;font-family:Z003;-inkscape-font-specification:Z003;fill:#ffcc00;stroke:#ffffff;stroke-width:0.270653px;stroke-opacity:1" /></text>
    <text
       xml:space="preserve"
       style="font-style:normal;font-variant:normal;font-weight:normal;font-stretch:normal;font-size:4.98041px;line-height:125%;font-family:Z003;-inkscape-font-specification:Z003;letter-spacing:0px;word-spacing:0px;fill:#ffcc00;fill-opacity:1;stroke:#ffffff;stroke-width:0.124509px;stroke-linecap:butt;stroke-linejoin:miter;stroke-opacity:1"
       x="7.7196903"
       y="7.7083521"
       id="text27"
       inkscape:export-xdpi="96"
       inkscape:export-ydpi="96"
       transform="scale(0.94160655,1.0620147)"
       inkscape:export-filename="/home/orschiro/Downloads/phil-rob/site_logo.png"><tspan
         sodipodi:role="line"
         id="tspan25"
         x="7.7196903"
         y="7.7083521"
         style="font-style:normal;font-variant:normal;font-weight:normal;font-stretch:normal;font-family:Z003;-inkscape-font-specification:Z003;fill:#ffcc00;stroke:#ffffff;stroke-width:0.124509px;stroke-opacity:1" /></text>
    <g
       id="g2020"
       transform="matrix(0.80651316,0,0,0.80651316,1.014892,1.2571101)"
       style="fill:#ffd200;fill-opacity:1"
       inkscape:export-filename="/home/orschiro/Downloads/phil-rob/site_logo.png"
       inkscape:export-xdpi="96"
       inkscape:export-ydpi="96">
      <g
         aria-label="P"
         transform="matrix(0.98409422,-0.19475184,0.19351918,0.9778655,0,0)"
         id="text12"
         style="font-size:8.22418px;line-height:125%;font-family:Z003;-inkscape-font-specification:Z003;letter-spacing:0px;word-spacing:0px;stroke-width:0.205604px">
        <path
           d="m 3.1030706,8.964858 q -0.2467254,0 -0.4687783,-0.1315868 -0.2138287,-0.1315869 -0.2138287,-0.3371914 0,-0.1069144 0.032897,-0.2302771 Q 2.4944812,8.14244 2.527378,8.0355257 2.7823275,7.2542286 3.0043804,6.5798458 3.2264333,5.8972388 3.4484861,5.2722011 3.6787632,4.6389392 3.9254886,4.0056774 4.1804382,3.3724155 4.492957,2.6815844 4.1804382,2.7473778 3.9583853,2.8542921 q -0.2220529,0.09869 -0.3618639,0.180932 -0.1398111,0.074018 -0.2056045,0.074018 -0.041121,0 -0.1233627,-0.057569 Q 3.1935366,2.9941032 3.1359673,2.9200856 3.078398,2.846068 3.078398,2.7884987 3.3086751,2.6898085 3.6129697,2.5828942 3.9254886,2.4759798 4.2873525,2.4019622 q 0.361864,-0.074018 0.7237279,-0.074018 0.3865365,0 0.7895213,0.1069143 0.4029848,0.09869 0.7401762,0.3042947 0.3454156,0.1973803 0.5510201,0.501675 0.2138287,0.2960705 0.2138287,0.6990553 0,0.4358816 -0.1973804,0.7484004 Q 6.910866,5.0008032 6.5818988,5.2146319 6.2611558,5.4284605 5.8828435,5.5600474 5.5045312,5.6916343 5.1262189,5.7574278 4.7561308,5.8232212 4.4600603,5.8478937 4.1639898,5.8725663 4.0159546,5.8725663 H 3.9666095 Q 3.7363324,6.6867601 3.5142796,7.500954 3.2922267,8.3069236 3.1030706,8.964858 Z M 4.0406271,5.6176167 Q 4.5011812,5.58472 4.9617353,5.4613573 5.4222894,5.3379946 5.7923775,5.1241659 6.1706898,4.902113 6.3927427,4.5731458 6.6230197,4.2441786 6.6230197,3.808297 q 0,-0.411209 -0.2220529,-0.6661586 Q 6.1871382,2.8871889 5.8417226,2.755602 5.5045312,2.6240151 5.1262189,2.6157909 4.8301484,3.1914835 4.5587505,3.9810048 4.2873525,4.7623019 4.0406271,5.6176167 Z"
           style="font-weight:bold;font-family:'Dancing Script';-inkscape-font-specification:'Dancing Script'"
           id="path834" />
      </g>
      <g
         aria-label="R"
         transform="matrix(0.98409422,-0.19475184,0.19351918,0.9778655,0,0)"
         id="text5019"
         style="font-size:8.22418px;line-height:125%;font-family:Z003;-inkscape-font-specification:Z003;letter-spacing:0px;word-spacing:0px;stroke-width:0.205604px">
        <path
           d="m 8.4137811,13.354423 q -0.1973804,0 -0.45233,-0.213829 Q 7.7065016,12.926765 7.4268794,12.58135 7.1554815,12.235934 6.8840835,11.824725 6.6209098,11.405292 6.3824085,10.985859 6.1439073,10.566426 5.9794237,10.229234 q -0.2220529,0.756625 -0.4276574,1.496801 -0.1973803,0.731952 -0.3783122,1.35699 -0.2385013,0 -0.45233,-0.131587 -0.2056045,-0.131587 -0.2056045,-0.345416 0,-0.09047 0.041121,-0.213828 0.041121,-0.123363 0.074018,-0.238502 Q 4.8691594,11.438189 5.0583155,10.878944 5.2474717,10.311476 5.4119553,9.8426977 5.5846631,9.3656952 5.7573708,8.9051411 5.9383028,8.4363628 6.1521315,7.9264637 6.3659602,7.4165645 6.6455823,6.7750784 6.3248393,6.8408719 6.0781139,6.9477862 5.8396127,7.0547006 5.6833532,7.1369424 5.535318,7.2191842 5.4777487,7.2191842 q -0.041121,0 -0.1233627,-0.049345 Q 5.2721442,7.1122698 5.2063508,7.0382522 5.1487815,6.9560104 5.1487815,6.8984411 5.3790586,6.8079751 5.6833532,6.7010608 5.9958721,6.5941465 6.3659602,6.5201288 6.7360483,6.437887 7.1308089,6.437887 q 0.3700882,0 0.7648488,0.090466 0.3947607,0.082242 0.731952,0.271398 0.3371914,0.1891561 0.5427959,0.4934508 0.2056045,0.3042947 0.2056045,0.731952 0,0.3865365 -0.1727077,0.6743828 Q 9.0305946,8.9791587 8.7427483,9.1765391 8.454902,9.3739194 8.1094864,9.4972821 7.7640708,9.6206448 7.4104311,9.6946624 q -0.3536398,0.065793 -0.6579344,0.090466 -0.2960705,0.024673 -0.4934509,0.032897 0.2631738,0.4194329 0.5181234,0.8141939 0.2549496,0.394761 0.5427959,0.789521 0.2960705,0.386537 0.682607,0.781297 0.3865364,0.386537 0.912884,0.789522 -0.032897,0.164483 -0.2056046,0.263173 -0.1644836,0.09869 -0.2960704,0.09869 z M 6.1685799,9.5712997 Q 6.629134,9.538403 7.0732397,9.4232645 7.5255696,9.3081259 7.8874335,9.1025214 8.2575216,8.8969169 8.4713503,8.5926223 8.6934032,8.2801034 8.6934032,7.8606702 q 0,-0.4276574 -0.2138287,-0.6661586 Q 8.2657458,6.9477862 7.9285544,6.8408719 7.591363,6.7339575 7.2212749,6.7257333 6.9416528,7.2767534 6.678479,8.0251538 6.4153053,8.76533 6.1685799,9.5712997 Z"
           style="font-weight:bold;font-family:'Dancing Script';-inkscape-font-specification:'Dancing Script'"
           id="path837" />
      </g>
      <g
         aria-label="&amp;"
         transform="matrix(0.98409422,-0.19475184,0.19351918,0.9778655,0,0)"
         id="text5483"
         style="font-size:3.26507px;line-height:125%;font-family:Z003;-inkscape-font-specification:Z003;letter-spacing:0px;word-spacing:0px;stroke-width:0.0816261px">
        <path
           d="m 4.1392328,9.0622336 q -0.2089645,0 -0.3689529,-0.084892 Q 3.6135566,8.895715 3.5253997,8.7585821 3.4405078,8.6214491 3.4405078,8.4549306 q 0,-0.1469282 0.062036,-0.2873262 Q 3.5645805,8.0272064 3.6755929,7.9096639 3.7866053,7.7921214 3.9400636,7.7137597 4.0935218,7.6321329 4.2731007,7.6060124 4.1588232,7.5015301 4.0967869,7.3741924 4.0380157,7.2468547 4.0380157,7.1162519 q 0,-0.1763138 0.088157,-0.3330372 0.088157,-0.1567233 0.2481454,-0.2546754 0.1632535,-0.097952 0.375483,-0.097952 0.1959042,0 0.2971214,0.094687 0.1044822,0.091422 0.1044822,0.2677358 0,0.1240726 -0.042446,0.2448802 -0.042446,0.1175425 -0.1044822,0.1959042 -0.062036,0.075097 -0.1240727,0.075097 -0.045711,0 -0.088157,-0.039181 -0.039181,-0.042446 -0.068567,-0.094687 0.1208076,-0.097952 0.1991693,-0.2056994 0.081627,-0.1077473 0.081627,-0.2220247 0,-0.091422 -0.052241,-0.1469282 -0.052241,-0.058771 -0.1665185,-0.058771 -0.1469282,0 -0.2481453,0.084892 -0.1012172,0.084892 -0.1534583,0.2220247 -0.052241,0.1338679 -0.052241,0.2938563 0,0.075097 0.01306,0.1665186 0.016325,0.091422 0.068567,0.186109 0.052241,0.091422 0.1567234,0.1763138 -0.2350851,0.035916 -0.4081338,0.1632535 -0.1730487,0.1240726 -0.2677357,0.2905912 -0.094687,0.1665186 -0.094687,0.3297721 0,0.097952 0.039181,0.2024343 0.042446,0.1044822 0.1371329,0.1763138 0.094687,0.071832 0.2481453,0.071832 0.1763138,0 0.3363022,-0.081627 0.1599885,-0.081627 0.2905913,-0.2187597 0.1338678,-0.140398 0.2187597,-0.3134467 0.084892,-0.1730487 0.1077473,-0.3558927 -0.062036,0.00327 -0.1208076,0.0098 -0.055506,0.00653 -0.1306028,0.01959 -0.071832,0.01306 -0.1926391,0.035916 0.00326,-0.1665185 0.1110123,-0.2220247 0.1077473,-0.055506 0.2579406,-0.055506 0.1044822,0 0.189374,0.01306 0.088157,0.01306 0.1730487,0.029386 0.088157,0.01306 0.1959042,0.01306 -0.052241,0.1077473 -0.094687,0.1306028 -0.039181,0.01959 -0.078362,0.01959 -0.058771,0 -0.1012172,0.00327 -0.039181,0 -0.081627,0 Q 5.2820073,8.1545441 5.1775251,8.3569785 5.0763079,8.5594128 4.9163195,8.7194012 4.756331,8.8793897 4.5571618,8.9708116 4.3579925,9.0622336 4.1392328,9.0622336 Z"
           style="font-weight:bold;font-family:'Dancing Script';-inkscape-font-specification:'Dancing Script'"
           id="path840" />
      </g>
    </g>
  </g>
</svg>
